Inverse Dynamics Generalized Forces
version=1
nRows=16
nColumns=34
inDegrees=no
endheader 
time	pelvis_tilt_moment	pelvis_list_moment	pelvis_rotation_moment	pelvis_tx_force	pelvis_ty_force	pelvis_tz_force	hip_flexion_l_moment	hip_adduction_l_moment	hip_rotation_l_moment	hip_flexion_r_moment	hip_adduction_r_moment	hip_rotation_r_moment	knee_angle_l_moment	knee_angle_r_moment	ankle_angle_l_moment	ankle_angle_r_moment	subtalar_angle_l_moment	subtalar_angle_r_moment	mtp_angle_l_moment	mtp_angle_r_moment	lumbar_extension_moment	lumbar_bending_moment	lumbar_rotation_moment	arm_flex_l_moment	arm_add_l_moment	arm_rot_l_moment	arm_flex_r_moment	arm_add_r_moment	arm_rot_r_moment	elbow_flex_l_moment	elbow_flex_r_moment	pro_sup_l_moment	pro_sup_r_moment	
          0.50000000	         -0.00003021	         -0.00000231	          0.00001101	         -0.00003157	          0.00008540	          0.00004100	         21.70108910	        -37.81979115	          1.26789733	         37.52867317	         -1.01525900	         -3.75195418	        -31.13176277	          1.96500490	        -43.41479971	          1.04898411	          9.36276317	         -0.50653861	          2.62191655	         -0.10918261	        -24.04307519	         13.34198491	          0.78794119	        -12.87358030	         -5.83030149	         -0.83433349	         32.88781715	          1.85482427	         -8.44954332	         -2.32864839	         11.73299084	          0.07334802	         -0.35887431	
          0.51000000	          0.00000911	         -0.00001167	         -0.00000447	          0.00002031	          0.00004568	         -0.00000315	         10.97935978	        -33.34937962	         -1.02869538	         20.47520672	         -0.38594005	         -2.00231516	        -21.17711414	          5.91233053	        -50.19774576	          0.41504473	          8.18412473	         -0.22206503	          3.12531783	         -0.09028748	         -3.90946119	          8.19272275	         -4.18571791	        -11.83674629	         -2.36927455	          0.05286597	          4.83366085	         -0.83893077	         -1.44726449	         -3.50755178	          2.59925066	          0.13547801	          0.01472338	
          0.52000000	         -0.00002343	          0.00001845	          0.00001055	         -0.00001661	          0.00006357	          0.00000447	          7.72779982	        -26.71812645	         -1.02029965	          5.13196695	          1.23510218	         -1.33023505	        -16.41886046	          9.55642220	        -52.39457444	         -0.17470265	         10.65896120	          0.05808322	          3.90495575	         -0.07035407	         10.13286062	          5.43596508	         -4.38136597	         -8.84851058	         -1.76783282	          0.25854652	        -12.38615924	         -3.15105299	          2.84503023	         -3.56756311	         -3.21244460	          0.13967289	          0.20278405	
          0.53000000	          0.00001211	         -0.00001210	         -0.00000560	          0.00001736	          0.00002585	          0.00000024	          6.70333734	        -21.65109608	         -0.93916945	          1.56937293	          1.16137279	         -1.37903876	        -14.77962150	         10.44397822	        -51.40591352	         -0.29682753	         12.14221368	          0.11099602	          4.29433734	         -0.05814038	         14.82580192	          7.39262485	         -2.89261868	          2.04696886	         -3.43786765	         -0.36010458	        -11.69833151	         -4.06893871	          2.55161996	          0.53192766	         -3.20650680	         -0.01836686	          0.05383920	
          0.54000000	         -0.00001207	          0.00000594	          0.00000511	         -0.00001048	          0.00003902	          0.00000562	          6.77024792	        -21.08217944	         -0.32236430	          4.73397171	          0.07444661	         -1.45640389	        -14.17582573	          9.55835112	        -48.68095798	         -0.13334531	         12.31234412	          0.02319776	          4.64869836	         -0.05417906	         13.05692219	          7.62513413	         -0.97752730	          7.94641630	         -4.14606247	         -0.76602612	         -3.13606039	         -4.53843605	          0.16652682	          3.17937959	         -0.89447518	         -0.11574258	         -0.08157543	
          0.55000000	          0.00000750	          0.00000275	         -0.00000245	          0.00001064	          0.00002012	         -0.00000491	         11.99048745	        -20.07466448	          0.47765085	          9.50312018	         -0.46792451	         -1.69792420	        -16.47678931	          8.30908017	        -46.25018925	          0.09954724	         12.07941551	         -0.09717654	          4.93937745	         -0.05478418	          6.15125488	          9.44487256	          2.06035798	         10.16658053	         -5.39525963	         -1.24468120	          8.49231134	         -4.49000660	         -2.91359189	          4.44089669	          2.35146475	         -0.17477667	         -0.18088790	
          0.56000000	          0.00000055	          0.00000362	         -0.00000019	          0.00000090	          0.00002469	         -0.00000103	         11.79806012	        -19.82844592	          0.64724003	         10.45671466	         -1.83572360	         -1.54076827	        -16.42141450	          7.67609092	        -45.25848171	          0.19929011	         12.23069511	         -0.10398013	          5.15712450	         -0.05650737	          4.33366149	          7.83295048	          1.80872291	          4.02379114	         -3.38199955	         -0.76112154	          7.33716777	         -4.10067216	         -2.52993295	          1.80053716	          2.02049803	         -0.09664550	         -0.09396886	
          0.57000000	          0.00000427	          0.00000644	         -0.00000096	          0.00000702	          0.00001873	         -0.00000855	         11.26751507	        -19.58845182	          0.70190283	         10.69067222	         -2.83133077	         -1.19050527	        -16.67912919	          7.70254889	        -46.08985773	          0.24809380	         13.07819244	         -0.10772467	          5.52394744	         -0.05711911	          3.29876139	          7.94153368	          1.05496279	         -0.62001663	         -2.22998006	         -0.40604713	          3.98107017	         -3.51367820	         -1.52754049	         -0.21206209	          1.27358128	         -0.03662832	         -0.04257967	
          0.58000000	         -0.00000006	          0.00000758	          0.00000076	          0.00000104	          0.00002035	         -0.00000442	         10.93288886	        -20.41038535	          0.76860494	         10.17128195	         -3.22654706	         -0.57767361	        -18.59709839	          8.52409661	        -47.28669743	          0.24165446	         14.25025016	         -0.11451657	          5.86393990	         -0.05612161	          2.56431345	          9.01509917	         -0.39155374	         -1.93324321	         -2.34056409	         -0.29294866	          0.13201550	         -3.18021922	         -0.52445814	         -0.70957594	          0.57405356	         -0.01952242	         -0.09292881	
          0.59000000	          0.00000473	          0.00000445	         -0.00000176	          0.00000594	          0.00001587	          0.00000085	         12.71823423	        -21.55271430	          1.14185749	         10.87909643	         -3.09219141	         -0.68539449	        -21.41432958	          9.24690380	        -48.26472178	          0.22649750	         14.64371587	         -0.12545933	          6.03799199	         -0.05242578	          1.57916059	         11.01276536	         -0.11138384	         -0.94188843	         -4.01725337	         -0.58205809	          0.12307918	         -3.54999046	         -0.64564545	          0.09214314	          0.47884040	         -0.03041999	         -0.08477834	
          0.60000000	          0.00000953	          0.00000128	         -0.00000375	          0.00001106	          0.00001554	         -0.00000451	         16.79468915	        -22.84168428	          1.78458949	         11.44724838	         -2.59589038	         -0.98192642	        -25.70278694	         10.02576819	        -48.96209080	          0.18325142	         14.55475618	         -0.13152587	          6.02802271	         -0.04661940	          0.15478127	         13.26181375	          1.25382204	          0.68926014	         -6.27228158	         -1.01750423	          1.38431473	         -4.23485218	         -1.12053416	          1.25550536	          0.48294122	         -0.04972969	         -0.03443122	
          0.61000000	          0.00000065	          0.00000701	          0.00000009	          0.00000170	          0.00001579	          0.00000116	         17.99694012	        -25.34273871	          1.95035597	          9.86672697	         -3.36314610	         -1.23896604	        -28.28074120	         10.78985229	        -49.90773841	          0.04055374	         14.70954512	         -0.07466737	          5.91754698	         -0.03423945	          3.81619385	         11.68234315	          2.87988361	          2.36630598	         -6.26841155	         -1.11019589	          1.63844704	         -5.53047536	         -1.30731075	          1.73048092	         -0.06385134	         -0.08012500	          0.01464916	
          0.62000000	          0.00001338	         -0.00000032	         -0.00000549	          0.00001417	          0.00001334	         -0.00000480	         20.56021542	        -27.23930625	          2.29586579	          9.09271814	         -3.57036988	         -1.59717926	        -31.98207524	         11.02293388	        -50.17318201	         -0.01833153	         15.07775240	         -0.03063258	          5.72028374	         -0.02891379	          4.45431035	         10.22807665	          4.27108803	          1.89870279	         -5.76273166	         -1.06263976	          3.04712533	         -5.95399761	         -1.65697232	          1.28522300	          0.34160242	         -0.08981027	         -0.00621651	
          0.63000000	         -0.00000309	          0.00000830	          0.00000180	         -0.00000145	          0.00001437	          0.00000078	         23.19473936	        -29.57099805	          2.64712538	          9.99592435	         -3.38534724	         -1.85995893	        -36.43257251	         10.41594509	        -49.81804296	          0.07188775	         15.35301507	         -0.03148015	          5.47410780	         -0.03518082	          1.96564091	          8.45531019	          4.54993517	         -1.76141260	         -4.40899103	         -0.78059787	          6.77961187	         -5.25591337	         -2.48205210	         -0.39403544	          2.33375634	         -0.06906830	         -0.12713767	
          0.64000000	          0.00001184	         -0.00000499	         -0.00000512	          0.00001166	          0.00001297	         -0.00000297	         25.68269454	        -30.56253991	          2.80944474	         10.47224329	         -2.60937554	         -2.04507990	        -40.29271034	          9.92069708	        -49.38207802	          0.12937076	         15.39184256	         -0.03628287	          5.22865368	         -0.03892639	          0.14817864	          8.56003395	          3.64250438	         -4.39877712	         -2.78728128	         -0.35890819	          6.57301437	         -4.61245122	         -2.27463140	         -1.21409233	          2.77779657	         -0.02063263	         -0.12661694	
          0.65000000	         -0.00001258	          0.00001162	          0.00000600	         -0.00000977	          0.00001482	          0.00000017	         27.79399738	        -31.57429365	          2.96061777	         10.29310921	         -1.54970613	         -2.18073727	        -43.79524756	          9.66150673	        -49.26842083	          0.14181618	         15.36613998	         -0.03230290	          5.04941633	         -0.04005077	         -0.81794810	          8.73230704	          2.35162247	         -5.78802155	         -0.99733988	          0.12866957	          4.12966198	         -4.19519087	         -1.50535504	         -1.43427992	          2.23856417	          0.03374411	         -0.07253767	
